<?xml version="1.0" encoding="UTF-8"?>
<svg id="Layer_2" data-name="Layer 2" xmlns="http://www.w3.org/2000/svg" viewBox="0 0 295.65 226.69">
  <defs>
    <style>
      .cls-1 {
        fill: #fff;
      }

      .cls-2 {
        fill: #dd5757;
      }
    </style>
  </defs>
  <g id="Layer_3" data-name="Layer 3">
    <g>
      <g>
        <path class="cls-1" d="M59.31,43.71V2.31s7.85,0,7.85,0v60.16S24.66,18.94,24.66,18.94v40.85s-7.86,0-7.86,0V0s42.51,43.71,42.51,43.71Z"/>
        <path class="cls-1" d="M139.89,30.68c0,17.47-13.86,31.05-31.7,31.05-17.65,0-31.7-13.77-31.7-31.05,0-16.73,14.32-30.22,31.97-30.22,17.19,0,31.42,13.68,31.42,30.22ZM84.72,31.05c0,12.66,10.53,22.46,24.03,22.46,12.48,0,22.83-10.16,22.83-22.46,0-12.75-10.35-22.55-23.75-22.55-12.75,0-23.1,10.07-23.1,22.55Z"/>
        <path class="cls-1" d="M163.83,2.31c12.38,0,20.98,6.75,20.98,16.45,0,4.99-2.13,9.24-6.01,12.29-2.59,2.03-4.62,2.87-9.61,4.16l16.73,24.58h-8.96s-15.99-23.66-15.99-23.66h-1.76s0,23.66,0,23.66h-7.85s0-57.48,0-57.48h12.47ZM159.21,29.29c6.01-.09,8.59-.37,11.27-1.48,3.97-1.57,6.1-4.62,6.1-8.59,0-4.07-2.03-7.12-5.82-8.59-2.86-1.11-5.45-1.39-11.55-1.39v20.05Z"/>
        <path class="cls-1" d="M227.96,2.31v7.86s-13.68,0-13.68,0v49.62s-7.76,0-7.76,0V10.16s-13.68,0-13.68,0V2.31s35.12,0,35.12,0Z"/>
        <path class="cls-1" d="M244.97,2.31v22.09s27.45,0,27.45,0V2.31s7.76,0,7.76,0v57.48s-7.76,0-7.76,0v-27.63s-27.45,0-27.45,0v27.63s-7.85,0-7.85,0V2.31s7.85,0,7.85,0Z"/>
      </g>
      <g>
        <g>
          <path class="cls-2" d="M251.65,104.41c.08-2.73.76-4.58,2.29-6.15,1.45-1.53,3.54-2.41,5.63-2.41,4.66,0,7.84,3.17,7.84,7.8,0,2.37-1.29,5.1-3.58,7.72l-6.67,7.59h9.88s0,2.73,0,2.73h-15.99s8.4-9.56,8.4-9.56c4.34-4.9,5.02-6.07,5.02-8.44,0-2.89-1.93-4.86-4.7-4.86-3.13,0-5.1,2.09-5.26,5.59h-2.85Z"/>
          <path class="cls-2" d="M295.49,96.65v2.73s-9.36,0-9.36,0l-1.61,6.03c.64-.2,1.25-.36,1.81-.44.56-.08,1.09-.12,1.61-.12,4.3,0,7.72,3.7,7.72,8.36,0,5.3-3.74,9.24-8.76,9.24-1.69,0-3.34-.48-5.02-1.53-1.05-.64-1.61-1.09-2.89-2.33l2.17-1.93c2.49,2.17,3.86,2.85,5.59,2.85,3.5,0,6.03-2.61,6.03-6.15,0-3.46-2.13-5.59-5.55-5.59-2.01,0-3.42.48-6.79,2.29l3.62-13.42h11.45Z"/>
        </g>
        <g>
          <path class="cls-2" d="M.6,104.41c.08-2.73.76-4.58,2.29-6.15,1.45-1.53,3.54-2.41,5.63-2.41,4.66,0,7.84,3.17,7.84,7.8,0,2.37-1.29,5.1-3.58,7.72l-6.67,7.59h9.88s0,2.73,0,2.73H0s8.4-9.56,8.4-9.56c4.34-4.9,5.02-6.07,5.02-8.44,0-2.89-1.93-4.86-4.7-4.86-3.13,0-5.1,2.09-5.26,5.59H.6Z"/>
          <path class="cls-2" d="M44.72,109.47c0,8.32-2.93,12.98-8.08,12.98-5.22,0-8.04-4.78-8.04-13.62,0-8,3.05-12.9,8.04-12.9h.12c5.26.16,7.96,4.74,7.96,13.54ZM31.54,109.19c0,6.79,1.77,10.37,5.1,10.37,3.38,0,5.1-3.54,5.1-10.21,0-6.91-1.69-10.49-5.02-10.49-3.42,0-5.18,3.54-5.18,10.33Z"/>
        </g>
        <g>
          <g>
            <path class="cls-1" d="M31.71,155.62c14.26,0,24.32,6.85,24.32,16.47,0,5.97-3.09,10.39-10.06,14.48,5.64,2.1,7.74,3.32,10.5,5.75,3.43,3.21,5.08,7.3,5.08,12.27,0,11.94-11.61,19.79-29.51,19.79h-11.28s0-68.75,0-68.75h10.94ZM30.05,184.25c10.17-.11,16.03-3.98,16.03-10.83,0-5.86-5.31-9.62-13.71-9.62-.55,0-1.33,0-2.32.11v20.34ZM30.05,215.97h.77c6.3,0,9.62-.44,12.82-1.77,4.97-2.1,8.18-5.97,8.18-10.06,0-7.18-7.07-11.72-18.57-11.72h-3.21s0,23.54,0,23.54Z"/>
            <path class="cls-1" d="M85.32,155.62v59.47s22.44,0,22.44,0v9.29s-31.72,0-31.72,0v-68.75s9.28,0,9.28,0Z"/>
            <path class="cls-1" d="M125.23,155.73v42.22c0,12.49,6.19,19.68,17.24,19.68s17.35-6.63,17.35-18.02v-43.88s9.4,0,9.4,0v43.22c0,16.91-10.39,27.74-26.42,27.74-8.18,0-14.04-2.21-18.9-7.07-5.75-5.75-8.07-12.27-8.07-23.21v-40.68s9.4,0,9.4,0Z"/>
            <path class="cls-1" d="M220.29,155.62v9.4s-28.85,0-28.85,0v17.13s28.85,0,28.85,0v9.29s-28.85,0-28.85,0v23.65s28.85,0,28.85,0v9.29s-38.14,0-38.14,0v-68.75s38.14,0,38.14,0Z"/>
            <path class="cls-1" d="M265.72,169.33c-4.97-5.08-7.3-6.19-12.6-6.19-6.74,0-11.39,3.32-11.39,8.18,0,4.09,3.21,6.96,12.05,10.72,8.07,3.43,9.84,4.53,15.14,9.17,4.09,4.31,6.08,9.29,6.08,14.81,0,11.5-9.51,20.67-21.33,20.67-7.52,0-13.82-2.65-18.9-7.96-2.87-3.09-4.2-5.31-6.52-10.94l9.4-2.65c3.65,8.07,8.4,11.61,15.7,11.61,6.85,0,11.94-4.53,11.94-10.83,0-2.87-1.55-6.08-4.2-8.62-2.1-2.1-4.64-3.54-10.28-5.86-7.18-2.87-8.73-3.76-13.38-7.85-3.76-3.98-5.42-7.85-5.42-12.38,0-9.95,9.06-17.8,20.34-17.8,4.31,0,8.95,1.11,12.93,3.21,3.54,1.77,4.97,2.98,8.07,6.63l-7.63,6.08Z"/>
          </g>
          <g>
            <path class="cls-1" d="M88.41,91.46c-4.16-4.25-6.1-5.18-10.54-5.18-5.64,0-9.52,2.77-9.52,6.84,0,3.42,2.68,5.82,10.07,8.96,6.75,2.86,8.22,3.79,12.66,7.67,3.42,3.6,5.08,7.76,5.08,12.38,0,9.61-7.95,17.28-17.83,17.28-6.28,0-11.55-2.22-15.8-6.65-2.4-2.59-3.51-4.44-5.45-9.15l7.86-2.22c3.05,6.75,7.02,9.7,13.12,9.7,5.73,0,9.98-3.79,9.98-9.06,0-2.4-1.29-5.08-3.51-7.21-1.76-1.76-3.88-2.96-8.59-4.9-6.01-2.4-7.3-3.14-11.18-6.56-3.14-3.33-4.53-6.56-4.53-10.35,0-8.32,7.58-14.88,17-14.88,3.6,0,7.49.92,10.81,2.68,2.96,1.48,4.16,2.49,6.75,5.54l-6.38,5.08Z"/>
            <path class="cls-1" d="M137.48,80v7.86s-13.68,0-13.68,0v49.62s-7.76,0-7.76,0v-49.62s-13.68,0-13.68,0v-7.86s35.12,0,35.12,0Z"/>
            <path class="cls-1" d="M193.11,137.48h-8.22s-6.75-14.69-6.75-14.69h-24.4s-6.56,14.69-6.56,14.69h-8.13s26.89-59.7,26.89-59.7l27.17,59.7ZM156.7,116.23h18.48s-9.24-20.42-9.24-20.42l-9.24,20.42Z"/>
            <path class="cls-1" d="M213.99,80c12.38,0,20.98,6.75,20.98,16.45,0,4.99-2.12,9.24-6.01,12.29-2.59,2.03-4.62,2.87-9.61,4.16l16.73,24.58h-8.96s-15.99-23.66-15.99-23.66h-1.76s0,23.66,0,23.66h-7.85s0-57.48,0-57.48h12.47ZM209.37,106.99c6.01-.09,8.59-.37,11.27-1.48,3.97-1.57,6.1-4.62,6.1-8.59,0-4.07-2.03-7.12-5.82-8.59-2.86-1.11-5.45-1.39-11.55-1.39v20.05Z"/>
          </g>
        </g>
      </g>
    </g>
  </g>
</svg>