<?xml version="1.0" encoding="UTF-8"?>
<svg id="Layer_2" data-name="Layer 2" xmlns="http://www.w3.org/2000/svg" viewBox="0 0 118.56 82.28">
  <defs>
    <style>
      .cls-1 {
        fill: #e39678;
      }

      .cls-2 {
        fill: #fff9f8;
      }
    </style>
  </defs>
  <g id="D">
    <g>
      <g>
        <path class="cls-2" d="M29.61.87v23.47L12.43,4.62v18.86h-1.78V0l17.18,19.79V.87h1.78Z"/>
        <path class="cls-2" d="M34.58,7.57c.56-1.41,1.35-2.64,2.36-3.68s2.2-1.86,3.57-2.44,2.86-.87,4.47-.87,3.11.29,4.47.87,2.55,1.39,3.57,2.44,1.8,2.27,2.36,3.68c.56,1.41.84,2.94.84,4.6s-.28,3.19-.84,4.6c-.56,1.41-1.35,2.64-2.36,3.68s-2.2,1.86-3.57,2.44-2.86.87-4.47.87-3.1-.29-4.47-.87-2.56-1.39-3.57-2.44-1.8-2.27-2.36-3.68c-.56-1.41-.84-2.94-.84-4.6s.28-3.19.84-4.6ZM36.82,17.21c.81,1.49,1.92,2.65,3.33,3.5,1.41.85,3.02,1.28,4.83,1.28s3.42-.42,4.83-1.28c1.41-.85,2.51-2.02,3.31-3.5s1.2-3.16,1.2-5.04-.4-3.58-1.2-5.05c-.8-1.47-1.9-2.64-3.31-3.49-1.41-.85-3.02-1.28-4.83-1.28s-3.42.42-4.83,1.28-2.52,2.01-3.33,3.49c-.81,1.47-1.21,3.16-1.21,5.05s.4,3.55,1.21,5.04Z"/>
        <path class="cls-2" d="M62.12.87v22.6h-1.78V.87h1.78ZM61.28.87h4.23c1.46,0,2.77.26,3.92.77,1.15.52,2.06,1.26,2.73,2.23.67.97,1,2.15,1,3.55s-.33,2.56-1,3.55c-.67.99-1.58,1.74-2.73,2.24-1.15.51-2.46.76-3.92.76h-4.23v-1.58h4.23c1.14,0,2.16-.19,3.05-.57.89-.38,1.59-.94,2.08-1.68.5-.74.74-1.65.74-2.73s-.25-1.98-.76-2.71c-.51-.73-1.2-1.29-2.08-1.68-.88-.39-1.89-.58-3.04-.58h-4.23V.87ZM66.15,12.69l7.72,10.78h-2.2l-7.49-10.78h1.97Z"/>
        <path class="cls-2" d="M74.97.87h13.66v1.68h-5.94v20.92h-1.78V2.55h-5.94V.87Z"/>
        <path class="cls-2" d="M93.56.87v22.6h-1.78V.87h1.78ZM92.72,10.33h15.24v1.68h-15.24v-1.68ZM108.58.87v22.6h-1.81V.87h1.81Z"/>
      </g>
      <g>
        <path class="cls-2" d="M31.09,48.85c.53.78,1.18,1.39,1.95,1.86.77.46,1.7.69,2.78.69,1.46,0,2.61-.4,3.44-1.21.83-.81,1.24-1.83,1.24-3.08,0-1.1-.25-1.98-.74-2.65-.5-.67-1.13-1.21-1.92-1.63-.79-.42-1.61-.79-2.47-1.11-.65-.24-1.32-.52-2.02-.86-.7-.33-1.35-.74-1.95-1.23-.6-.48-1.09-1.07-1.47-1.76-.38-.69-.56-1.52-.56-2.49,0-1.08.26-2.03.78-2.86.52-.83,1.24-1.47,2.16-1.94s1.97-.69,3.13-.69,2.24.23,3.12.68c.87.45,1.6,1.02,2.18,1.71.58.69,1.02,1.4,1.32,2.13l-1.55.87c-.24-.58-.58-1.15-1.02-1.71-.44-.56-1-1.03-1.66-1.4-.67-.38-1.5-.56-2.49-.56-1.31,0-2.32.34-3.04,1.02-.71.68-1.06,1.52-1.06,2.53,0,.84.21,1.56.61,2.16.41.6,1.02,1.15,1.84,1.63s1.83.94,3.04,1.37c.62.24,1.27.53,1.94.87.67.34,1.28.77,1.82,1.29s1,1.14,1.34,1.86c.34.72.52,1.58.52,2.57,0,.93-.17,1.76-.5,2.52-.33.75-.8,1.4-1.39,1.95s-1.29.97-2.08,1.26c-.8.29-1.66.44-2.58.44-1.31,0-2.46-.27-3.46-.81s-1.82-1.26-2.49-2.16-1.18-1.88-1.55-2.94l1.45-.9c.37.95.81,1.81,1.34,2.58Z"/>
        <path class="cls-2" d="M44.25,30.19h13.66v1.68h-5.94v20.92h-1.78v-20.92h-5.94v-1.68Z"/>
        <path class="cls-2" d="M61,44.1l-.19.39-3.39,8.3h-2l9.98-23.47,9.98,23.47h-2l-3.36-8.17-.16-.42-4.46-10.78-4.39,10.69ZM60.23,43.52h10.43l.58,1.68h-11.59l.58-1.68Z"/>
        <path class="cls-2" d="M80.15,30.19v22.6h-1.78v-22.6h1.78ZM79.31,30.19h4.23c1.46,0,2.77.26,3.92.77,1.15.52,2.06,1.26,2.73,2.23.67.97,1,2.15,1,3.55s-.33,2.56-1,3.55c-.67.99-1.58,1.74-2.73,2.24-1.15.51-2.46.76-3.92.76h-4.23v-1.58h4.23c1.14,0,2.16-.19,3.05-.57.89-.38,1.59-.94,2.08-1.68.49-.74.74-1.65.74-2.73s-.25-1.98-.76-2.71c-.51-.73-1.2-1.29-2.08-1.68s-1.89-.58-3.04-.58h-4.23v-1.58ZM84.19,42l7.72,10.78h-2.2l-7.49-10.78h1.97Z"/>
      </g>
      <g>
        <path class="cls-2" d="M21.11,68.78h3.52c.88,0,1.69-.14,2.42-.42.73-.28,1.31-.71,1.74-1.28.43-.57.65-1.3.65-2.18,0-1.25-.44-2.22-1.31-2.92-.87-.7-2.04-1.05-3.5-1.05h-3.13v19.44h3.45c1.14,0,2.14-.19,3-.58.86-.39,1.53-.95,2-1.7.47-.74.71-1.67.71-2.79,0-.8-.15-1.5-.45-2.11-.3-.61-.72-1.13-1.26-1.55s-1.15-.74-1.82-.95c-.68-.21-1.4-.32-2.18-.32h-3.84v-1.03h3.97c.93,0,1.83.12,2.71.37.88.25,1.67.62,2.37,1.11s1.26,1.12,1.68,1.89.63,1.66.63,2.7c0,1.49-.32,2.71-.97,3.68-.65.97-1.53,1.69-2.66,2.16-1.13.47-2.43.71-3.89.71h-5.23v-22.6h4.91c1.36,0,2.52.21,3.5.61.98.41,1.74,1.02,2.28,1.82.54.81.81,1.81.81,3.02,0,1.1-.27,2.02-.82,2.76s-1.31,1.3-2.28,1.68c-.97.38-2.09.57-3.36.57h-3.65v-1.03Z"/>
        <path class="cls-2" d="M38.71,59.35v20.92h9.33v1.68h-11.11v-22.6h1.78Z"/>
        <path class="cls-2" d="M52.82,59.35v15.3c0,1.81.47,3.25,1.42,4.33.95,1.08,2.29,1.61,4.04,1.61s3.09-.54,4.04-1.61c.95-1.08,1.42-2.52,1.42-4.33v-15.3h1.78v15.3c0,1.12-.16,2.15-.48,3.08-.32.94-.8,1.74-1.42,2.41s-1.38,1.19-2.28,1.57c-.89.38-1.91.57-3.05.57s-2.16-.19-3.05-.57c-.89-.38-1.65-.9-2.28-1.57s-1.1-1.47-1.42-2.41c-.32-.94-.48-1.96-.48-3.08v-15.3h1.78Z"/>
        <path class="cls-2" d="M72.54,59.35v22.6h-1.78v-22.6h1.78ZM71.71,59.35h11.2v1.68h-11.2v-1.68ZM71.71,68.71h10.56v1.68h-10.56v-1.68ZM71.71,80.27h11.2v1.68h-11.2v-1.68Z"/>
        <path class="cls-2" d="M89.51,78.01c.53.78,1.18,1.39,1.95,1.86s1.7.69,2.78.69c1.46,0,2.61-.4,3.44-1.21.83-.81,1.24-1.83,1.24-3.08,0-1.1-.25-1.98-.74-2.65-.5-.67-1.14-1.21-1.92-1.63-.79-.42-1.61-.79-2.47-1.11-.64-.24-1.32-.52-2.02-.86s-1.35-.74-1.95-1.23c-.6-.48-1.09-1.07-1.47-1.76-.38-.69-.56-1.52-.56-2.49,0-1.08.26-2.03.77-2.86.52-.83,1.24-1.47,2.16-1.94s1.97-.69,3.13-.69,2.24.23,3.12.68c.87.45,1.6,1.02,2.18,1.71.58.69,1.02,1.4,1.32,2.13l-1.55.87c-.24-.58-.58-1.15-1.02-1.71-.44-.56-1-1.03-1.66-1.4-.67-.38-1.5-.56-2.49-.56-1.31,0-2.32.34-3.04,1.02s-1.07,1.52-1.07,2.53c0,.84.21,1.56.61,2.16.41.6,1.02,1.15,1.84,1.63.82.48,1.83.94,3.04,1.37.62.24,1.27.53,1.94.87.67.34,1.28.77,1.82,1.29.55.52,1,1.14,1.34,1.86.34.72.52,1.58.52,2.57,0,.93-.17,1.76-.5,2.52-.33.75-.8,1.4-1.39,1.95s-1.29.97-2.08,1.26c-.8.29-1.66.44-2.58.44-1.31,0-2.46-.27-3.46-.81s-1.82-1.26-2.48-2.16c-.67-.9-1.19-1.88-1.55-2.94l1.45-.9c.37.95.81,1.81,1.34,2.58Z"/>
      </g>
      <g>
        <path class="cls-1" d="M5.31,41.96c.25-.27.46-.53.63-.79.18-.26.31-.53.4-.8.09-.27.14-.56.14-.86,0-.25-.05-.49-.14-.72-.1-.23-.24-.45-.43-.64-.19-.19-.41-.35-.68-.46-.27-.12-.57-.18-.91-.18-.48,0-.89.11-1.24.33-.35.22-.61.54-.79.95-.18.41-.27.9-.27,1.47H.64c0-.8.14-1.5.43-2.11.29-.6.71-1.07,1.26-1.41.55-.34,1.21-.5,1.98-.5.62,0,1.15.1,1.6.31.45.21.82.48,1.11.8.29.33.5.68.64,1.05s.21.73.21,1.07c0,.58-.14,1.15-.42,1.72-.28.57-.63,1.07-1.07,1.52l-3.57,3.64h5.11v1.28H0l5.31-5.66Z"/>
        <path class="cls-1" d="M13.18,39.03c.35-.87.84-1.55,1.47-2.04s1.35-.75,2.17-.75,1.55.25,2.17.75,1.11,1.18,1.47,2.04c.35.87.53,1.86.53,2.98s-.18,2.12-.53,2.98c-.35.87-.84,1.55-1.47,2.04s-1.35.75-2.17.75-1.55-.25-2.17-.75-1.11-1.18-1.47-2.04c-.35-.87-.53-1.86-.53-2.98s.18-2.12.53-2.98ZM14.21,43.81c.13.55.32,1.03.56,1.43.25.4.54.71.89.93.35.22.74.33,1.16.33s.83-.11,1.17-.33c.34-.22.63-.53.88-.93.25-.4.43-.88.56-1.43.13-.55.19-1.15.19-1.8s-.06-1.25-.19-1.8c-.13-.55-.32-1.03-.56-1.43s-.54-.71-.88-.93-.73-.33-1.17-.33-.82.11-1.16.33-.64.53-.89.93-.43.88-.56,1.43c-.13.55-.19,1.15-.19,1.8s.06,1.25.19,1.8Z"/>
      </g>
      <g>
        <path class="cls-1" d="M103.42,41.96c.25-.27.46-.53.63-.79.18-.26.31-.53.4-.8.09-.27.14-.56.14-.86,0-.25-.05-.49-.14-.72-.1-.23-.24-.45-.42-.64-.19-.19-.42-.35-.68-.46-.27-.12-.57-.18-.91-.18-.48,0-.9.11-1.24.33-.35.22-.61.54-.79.95-.18.41-.27.9-.27,1.47h-1.36c0-.8.14-1.5.43-2.11.29-.6.71-1.07,1.26-1.41.55-.34,1.21-.5,1.98-.5.62,0,1.15.1,1.6.31.45.21.82.48,1.11.8.29.33.5.68.64,1.05.14.37.21.73.21,1.07,0,.58-.14,1.15-.42,1.72-.28.57-.64,1.07-1.07,1.52l-3.58,3.64h5.12v1.28h-7.92l5.31-5.66Z"/>
        <path class="cls-1" d="M117.13,36.4l-3.51,4.63-.1-.08c.21-.27.46-.44.74-.53s.61-.13.97-.13c.46,0,.89.09,1.29.27s.75.44,1.06.77.54.72.71,1.16c.17.44.26.92.26,1.44,0,.77-.17,1.44-.5,2.02-.34.58-.79,1.03-1.36,1.35-.57.32-1.22.48-1.95.48s-1.36-.16-1.94-.48c-.58-.32-1.03-.77-1.37-1.35-.34-.58-.5-1.25-.5-2.02,0-.46.06-.89.19-1.28.13-.4.3-.74.51-1.04l3.78-5.21h1.72ZM112.55,45.29c.22.39.52.7.9.92.38.22.81.34,1.29.34s.91-.11,1.29-.34c.38-.22.68-.53.9-.92.22-.39.33-.84.33-1.35s-.11-.97-.33-1.37c-.22-.4-.52-.71-.9-.94-.38-.22-.81-.34-1.29-.34s-.91.11-1.29.34c-.38.22-.68.54-.9.94-.22.4-.33.86-.33,1.37s.11.96.33,1.35Z"/>
      </g>
    </g>
  </g>
</svg>